HIERARCHY
ROOT Hips
{
  OFFSET -4.35178 90.3298 111.633
  CHANNELS 6 Xposition Yposition Zposition Zrotation Xrotation Yrotation
  JOINT LeftUpLeg
  {
    OFFSET 0.103456 1.85784 10.5485
    CHANNELS 6 Xposition Yposition Zposition Zrotation Xrotation Yrotation
    JOINT LeftLeg
    {
      OFFSET 43.5 -4.2e-05 0
      CHANNELS 6 Xposition Yposition Zposition Zrotation Xrotation Yrotation
      JOINT LeftFoot
      {
        OFFSET 42.3722 1.9e-05 0
        CHANNELS 6 Xposition Yposition Zposition Zrotation Xrotation Yrotation
        JOINT LeftToe
        {
          OFFSET 17.3 0 0
          CHANNELS 6 Xposition Yposition Zposition Zrotation Xrotation Yrotation
          End Site
          {
            OFFSET 0 0 0
          }
        }
      }
    }
  }
  JOINT RightUpLeg
  {
    OFFSET 0.103456 1.85782 -10.5485
    CHANNELS 6 Xposition Yposition Zposition Zrotation Xrotation Yrotation
    JOINT RightLeg
    {
      OFFSET 43.5 -2.7e-05 0
      CHANNELS 6 Xposition Yposition Zposition Zrotation Xrotation Yrotation
      JOINT RightFoot
      {
        OFFSET 42.3723 0 0
        CHANNELS 6 Xposition Yposition Zposition Zrotation Xrotation Yrotation
        JOINT RightToe
        {
          OFFSET 17.3 0 1.7e-05
          CHANNELS 6 Xposition Yposition Zposition Zrotation Xrotation Yrotation
          End Site
          {
            OFFSET 0 0 0
          }
        }
      }
    }
  }
  JOINT Spine
  {
    OFFSET 6.90197 -2.60373 0
    CHANNELS 6 Xposition Yposition Zposition Zrotation Xrotation Yrotation
    JOINT Spine1
    {
      OFFSET 12.5881 0 0
      CHANNELS 6 Xposition Yposition Zposition Zrotation Xrotation Yrotation
      JOINT Spine2
      {
        OFFSET 12.3432 -1.8e-05 0
        CHANNELS 6 Xposition Yposition Zposition Zrotation Xrotation Yrotation
        JOINT Neck
        {
          OFFSET 25.8329 2.3e-05 0
          CHANNELS 6 Xposition Yposition Zposition Zrotation Xrotation Yrotation
          JOINT Head
          {
            OFFSET 11.7666 0 0
            CHANNELS 6 Xposition Yposition Zposition Zrotation Xrotation Yrotation
            End Site
            {
              OFFSET 0 0 0
            }
          }
        }
        JOINT LeftShoulder
        {
          OFFSET 19.7459 -1.48035 6.0001
          CHANNELS 6 Xposition Yposition Zposition Zrotation Xrotation Yrotation
          JOINT LeftArm
          {
            OFFSET 11.2841 1.8e-05 -2e-05
            CHANNELS 6 Xposition Yposition Zposition Zrotation Xrotation Yrotation
            JOINT LeftForeArm
            {
              OFFSET 33 -1.3e-05 1.9e-05
              CHANNELS 6 Xposition Yposition Zposition Zrotation Xrotation Yrotation
              JOINT LeftHand
              {
                OFFSET 25.2 3.2e-05 1.1e-05
                CHANNELS 6 Xposition Yposition Zposition Zrotation Xrotation Yrotation
                End Site
                {
                  OFFSET 0 0 0
                }
              }
            }
          }
        }
        JOINT RightShoulder
        {
          OFFSET 19.7461 -1.48036 -6.00008
          CHANNELS 6 Xposition Yposition Zposition Zrotation Xrotation Yrotation
          JOINT RightArm
          {
            OFFSET 11.2841 0 0
            CHANNELS 6 Xposition Yposition Zposition Zrotation Xrotation Yrotation
            JOINT RightForeArm
            {
              OFFSET 33.0001 1.6e-05 0
              CHANNELS 6 Xposition Yposition Zposition Zrotation Xrotation Yrotation
              JOINT RightHand
              {
                OFFSET 25.1998 0.000123 0.000432
                CHANNELS 6 Xposition Yposition Zposition Zrotation Xrotation Yrotation
                End Site
                {
                  OFFSET 0 0 0
                }
              }
            }
          }
        }
      }
    }
  }
}
MOTION
Frames:	9
Frame Time:	0.0333333
5.82448 89.8286 -109.419 9.77744 -84.8428 -78.8481 0.103456 1.85784 10.5485 10.5903 0.447528 -177.552 43.5 -4.2e-05 1e-05 -7.74657 -7.88298 -1.82243 42.3722 1.9e-05 0 78.6007 -10.2494 5.21406 17.3 0 3e-06 21.4546 -1e-06 0.003093 0.103456 1.85782 -10.5485 5.029 -7.12012 175.892 43.5 -2.7e-05 4e-06 -14.0797 11.0303 2.08212 42.3723 1.42109e-14 1e-05 83.3399 7.73965 -4.9369 17.3 -6e-06 1.7e-05 21.4546 -1.9e-05 -0.003116 6.90197 -2.60373 -3e-06 7.42305 -0.890032 -0.63365 12.5881 1e-05 8e-06 4.84723 -1.8179 -1.10373 12.3432 -1.8e-05 -5e-06 4.56111 -1.8118 -0.977496 25.8329 2.3e-05 7e-06 3.6655 -0.341246 -9.36838 11.7666 -8e-06 -6e-06 -27.7578 -3.67227 11.6918 19.7459 -1.48035 6.0001 -176.164 4.62373 -90.8693 11.2841 1.8e-05 -2e-05 28.0814 -17.0607 16.8724 33 -1.3e-05 1.9e-05 -36.232 -4.69132 -14.9044 25.2 3.2e-05 1.1e-05 13.4293 27.8362 -5.97043 19.7461 -1.48036 -6.00008 179.142 6.21717 92.0572 11.2841 0 -1e-06 -3.49851 10.8122 -17.3328 33.0001 1.6e-05 -1e-06 -18.5769 1.02588 14.6819 25.1998 0.000123 0.000432 9.48101 -12.519 2.60622 
5.82498 89.829 -109.415 9.71035 -84.862 -78.9182 0.103456 1.85784 10.5485 10.5859 0.43361 -177.552 43.5 -4.2e-05 1e-05 -7.74666 -7.8859 -1.82245 42.3722 1.9e-05 -1.77636e-15 78.5807 -10.2982 5.21486 17.3 0 3e-06 21.4546 -1e-06 0.003093 0.103456 1.85782 -10.5485 5.029 -7.12012 175.892 43.5 -2.7e-05 4e-06 -14.0789 11.0303 2.08212 42.3723 0 1e-05 83.3404 7.7397 -4.93202 17.3 -6e-06 1.7e-05 21.4546 -1.9e-05 -0.003116 6.90197 -2.60373 -3e-06 7.42982 -0.890032 -0.63365 12.5881 1e-05 8e-06 4.86064 -1.81471 -1.11145 12.3432 -1.8e-05 -5e-06 4.57449 -1.8089 -0.985351 25.8329 2.3e-05 7e-06 3.6655 -0.341246 -9.36838 11.7666 -8e-06 -6e-06 -27.7573 -3.66785 11.6917 19.7459 -1.48035 6.0001 -176.154 4.62438 -90.8659 11.2841 1.8e-05 -2e-05 28.0723 -17.0459 16.871 33 -1.3e-05 1.9e-05 -36.2272 -4.67901 -14.9042 25.2 3.2e-05 1.1e-05 13.3867 27.8368 -5.95632 19.7461 -1.48036 -6.00008 179.141 6.21445 92.0654 11.2841 -1.42109e-14 -1e-06 -3.4903 10.835 -17.3342 33.0001 1.6e-05 -1e-06 -18.579 1.09744 14.6786 25.1998 0.000123 0.000432 9.5838 -12.487 2.57829 
5.82613 89.8294 -109.414 9.57569 -84.8797 -79.0613 0.103456 1.85784 10.5485 10.5783 0.422908 -177.552 43.5 -4.2e-05 1e-05 -7.73387 -7.89229 -1.82199 42.3722 1.9e-05 1.77636e-15 78.5551 -10.3308 5.2154 17.3 0 3e-06 21.4546 -1e-06 0.003093 0.103456 1.85782 -10.5485 5.02474 -7.12017 175.897 43.5 -2.7e-05 4e-06 -14.0639 11.0303 2.08212 42.3723 1.42109e-14 1e-05 83.3182 7.73982 -4.9222 17.3 -6e-06 1.7e-05 21.4546 -1.9e-05 -0.003116 6.90197 -2.60373 -3e-06 7.43569 -0.890031 -0.635198 12.5881 1e-05 8e-06 4.87237 -1.8048 -1.11512 12.3432 -1.8e-05 -5e-06 4.58606 -1.79904 -0.989642 25.8329 2.3e-05 7e-06 3.6655 -0.341246 -9.36838 11.7666 -8e-06 -6e-06 -27.7456 -3.66053 11.6916 19.7459 -1.48035 6.0001 -176.148 4.62532 -90.8608 11.2841 1.8e-05 -2e-05 28.0363 -17.0305 16.8695 33 -1.3e-05 1.9e-05 -36.2022 -4.6575 -14.9079 25.2 3.2e-05 1.1e-05 13.3492 27.8481 -5.94389 19.7461 -1.48036 -6.00008 179.13 6.20756 92.0615 11.2841 0 -1e-06 -3.52613 10.7948 -17.2958 33.0001 1.6e-05 -1e-06 -18.6015 1.07949 14.6691 25.1998 0.000123 0.000432 9.61236 -12.4941 2.55502 
5.82681 89.8299 -109.414 9.43255 -84.895 -79.2123 0.103456 1.85784 10.5485 10.5693 0.40998 -177.552 43.5 -4.2e-05 1e-05 -7.73317 -7.89521 -1.82487 42.3722 1.9e-05 1.77636e-15 78.5355 -10.3837 5.21852 17.3 0 3e-06 21.4546 -1e-06 0.003093 0.103456 1.85782 -10.5485 5.00923 -7.12021 175.902 43.5 -2.7e-05 4e-06 -14.0558 11.0278 2.0821 42.3723 0 1e-05 83.3111 7.72745 -4.91793 17.3 -6e-06 1.7e-05 21.4546 -1.9e-05 -0.003116 6.90197 -2.60373 -3e-06 7.44021 -0.890031 -0.638454 12.5881 1e-05 8e-06 4.88139 -1.80522 -1.11928 12.3432 -1.8e-05 -5e-06 4.59509 -1.79956 -0.993837 25.8329 2.3e-05 7e-06 3.66575 -0.339734 -9.36838 11.7666 -8e-06 -6e-06 -27.7337 -3.65803 11.6916 19.7459 -1.48035 6.0001 -176.149 4.6261 -90.8566 11.2841 1.8e-05 -2e-05 28.024 -17.0213 16.8644 33 -1.3e-05 1.9e-05 -36.1799 -4.67256 -14.8833 25.2 3.2e-05 1.1e-05 13.2085 27.8341 -5.86088 19.7461 -1.48036 -6.00008 179.136 6.20543 92.0498 11.2841 0 -1e-06 -3.55711 10.7721 -17.2561 33.0001 1.6e-05 -1e-06 -18.6425 1.04117 14.6775 25.1998 0.000123 0.000432 9.5993 -12.5217 2.57087 
5.82825 89.8304 -109.4 9.39291 -84.9121 -79.2615 0.103456 1.85784 10.5485 10.5506 0.402447 -177.546 43.5 -4.2e-05 1e-05 -7.74405 -7.89649 -1.82982 42.3722 1.9e-05 0 78.5586 -10.3924 5.22833 17.3 0 3e-06 21.4546 -1e-06 0.003093 0.103456 1.85782 -10.5485 5.00402 -7.12507 175.907 43.5 -2.7e-05 4e-06 -14.0383 11.0183 2.08203 42.3723 0 1e-05 83.2885 7.73516 -4.91367 17.3 -6e-06 1.7e-05 21.4546 -1.9e-05 -0.003116 6.90197 -2.60373 -3e-06 7.44837 -0.89003 -0.642687 12.5881 1e-05 8e-06 4.89779 -1.80433 -1.12314 12.3432 -1.8e-05 -5e-06 4.61148 -1.7987 -0.997624 25.8329 2.3e-05 7e-06 3.66406 -0.350109 -9.36471 11.7666 -8e-06 -6e-06 -27.7374 -3.66863 11.6931 19.7459 -1.48035 6.0001 -176.159 4.62696 -90.857 11.2841 1.8e-05 -2e-05 28.0603 -17.0445 16.899 33 -1.3e-05 1.9e-05 -36.1948 -4.68957 -14.8716 25.2 3.2e-05 1.1e-05 13.2531 27.826 -5.86593 19.7461 -1.48036 -6.00008 179.143 6.20382 92.039 11.2841 0 -1e-06 -3.57878 10.7272 -17.196 33.0001 1.6e-05 -1e-06 -18.6697 1.02967 14.7009 25.1998 0.000123 0.000432 9.52623 -12.5423 2.62557 
5.82924 89.8304 -109.386 9.4073 -84.925 -79.2575 0.103456 1.85784 10.5485 10.5165 0.397353 -177.538 43.5 -4.2e-05 1e-05 -7.77243 -7.89629 -1.83467 42.3722 1.9e-05 3.55271e-15 78.5773 -10.3911 5.22781 17.3 0 3e-06 21.4546 -1e-06 0.003093 0.103456 1.85782 -10.5485 4.98841 -7.13066 175.913 43.5 -2.7e-05 4e-06 -14.0205 11.0209 2.08205 42.3723 0 1e-05 83.2923 7.76837 -4.89477 17.3 -6e-06 1.7e-05 21.4546 -1.9e-05 -0.003116 6.90197 -2.60373 -3e-06 7.45612 -0.888266 -0.645698 12.5881 1e-05 8e-06 4.91333 -1.80089 -1.12562 12.3432 -1.8e-05 -5e-06 4.62696 -1.79517 -1.00029 25.8329 2.3e-05 7e-06 3.66247 -0.360081 -9.35541 11.7666 -8e-06 -6e-06 -27.7129 -3.7059 11.7102 19.7459 -1.48035 6.0001 -176.192 4.61305 -90.8552 11.2841 1.8e-05 -2e-05 27.994 -17.0502 16.8985 33 -1.3e-05 1.9e-05 -36.1734 -4.65332 -14.8927 25.2 3.2e-05 1.1e-05 13.3435 27.853 -5.91087 19.7461 -1.48036 -6.00008 179.148 6.1951 92.0048 11.2841 0 -1e-06 -3.54593 10.7148 -17.1814 33.0001 1.6e-05 -1e-06 -18.7544 1.0058 14.7484 25.1998 0.000123 0.000432 9.43548 -12.5644 2.68265 
5.83024 89.8316 -109.37 9.49716 -84.9401 -79.1778 0.103456 1.85784 10.5485 10.4598 0.389041 -177.526 43.5 -4.2e-05 1e-05 -7.84897 -7.88469 -1.83721 42.3722 1.9e-05 0 78.5979 -10.3836 5.22693 17.3 0 3e-06 21.4546 -1e-06 0.003093 0.103456 1.85782 -10.5485 4.9597 -7.18047 175.909 43.5 -2.7e-05 4e-06 -14.0367 11.0146 2.09267 42.3723 1.42109e-14 1e-05 83.2936 7.75285 -4.88406 17.3 -6e-06 1.7e-05 21.4546 -1.9e-05 -0.003116 6.90197 -2.60373 -3e-06 7.4677 -0.875188 -0.645288 12.5881 1e-05 8e-06 4.93605 -1.77533 -1.13688 12.3432 -1.8e-05 -5e-06 4.6493 -1.77002 -1.01309 25.8329 2.3e-05 7e-06 3.67332 -0.293765 -9.37008 11.7666 -8e-06 -6e-06 -27.6175 -3.6447 11.7525 19.7459 -1.48035 6.0001 -176.268 4.60948 -90.8849 11.2841 1.8e-05 -2e-05 27.8338 -17.0957 16.9599 33 -1.3e-05 1.9e-05 -36.2091 -4.62327 -14.9202 25.2 3.2e-05 1.1e-05 13.3356 27.8553 -5.94599 19.7461 -1.48036 -6.00008 179.156 6.20743 91.9267 11.2841 -1.42109e-14 -1e-06 -3.41659 10.6952 -17.2454 33.0001 1.6e-05 -1e-06 -18.943 1.04057 14.8104 25.1998 0.000123 0.000432 9.34421 -12.5472 2.72705 
5.83286 89.8366 -109.356 10.2501 -84.9411 -78.4503 0.103456 1.85784 10.5485 10.353 0.321392 -177.49 43.5 -4.2e-05 1e-05 -7.99436 -7.85661 -1.83524 42.3722 1.9e-05 0 78.6498 -10.4279 5.20353 17.3 0 3e-06 21.4546 -1e-06 0.003093 0.103456 1.85782 -10.5485 4.86122 -7.31953 175.915 43.5 -2.7e-05 4e-06 -14.1901 11.031 2.12139 42.3723 0 1e-05 83.3356 7.67488 -4.88089 17.3 -6e-06 1.7e-05 21.4546 -1.9e-05 -0.003116 6.90197 -2.60373 -3e-06 7.47341 -0.849189 -0.637059 12.5881 1e-05 8e-06 4.94713 -1.72222 -1.1241 12.3432 -1.8e-05 -5e-06 4.65944 -1.71607 -1.00364 25.8329 2.3e-05 7e-06 3.67887 -0.258506 -9.35265 11.7666 -8e-06 -6e-06 -27.4395 -3.62671 11.7588 19.7459 -1.48035 6.0001 -176.531 4.57859 -91.0463 11.2841 1.8e-05 -2e-05 27.6425 -17.4194 17.3843 33 -1.3e-05 1.9e-05 -36.4113 -4.67703 -14.9473 25.2 3.2e-05 1.1e-05 13.125 27.7751 -5.91448 19.7461 -1.48036 -6.00008 179.267 6.17062 91.7028 11.2841 0 -1e-06 -3.13532 10.5168 -17.3371 33.0001 1.6e-05 -1e-06 -19.406 0.999051 14.9044 25.1998 0.000123 0.000432 9.47307 -12.597 2.72276 
5.82434 89.8497 -109.325 11.9482 -84.9189 -76.7784 0.103456 1.85784 10.5485 10.159 0.19748 -177.44 43.5 -4.2e-05 1e-05 -8.25476 -7.76771 -1.82258 42.3722 1.9e-05 0 78.7121 -10.4722 5.15763 17.3 0 3e-06 21.4546 -1e-06 0.003093 0.103456 1.85782 -10.5485 4.57354 -7.53655 175.892 43.5 -2.7e-05 4e-06 -14.7042 11.0744 2.17611 42.3723 0 1e-05 83.4279 7.51613 -4.91028 17.3 -6e-06 1.7e-05 21.4546 -1.9e-05 -0.003116 6.90197 -2.60373 -3e-06 7.4993 -0.810283 -0.617976 12.5881 1e-05 8e-06 4.9985 -1.64152 -1.09123 12.3432 -1.8e-05 -5e-06 4.70936 -1.63273 -0.97577 25.8329 2.3e-05 7e-06 3.60191 -0.226167 -9.33343 11.7666 -8e-06 -6e-06 -27.1561 -3.59425 11.7399 19.7459 -1.48035 6.0001 -176.852 4.5886 -91.1934 11.2841 1.8e-05 -2e-05 27.5082 -17.9197 18.2629 33 -1.3e-05 1.9e-05 -37.1874 -4.85168 -14.8355 25.2 3.2e-05 1.1e-05 12.7438 27.6328 -5.9991 19.7461 -1.48036 -6.00008 179.505 6.14692 91.24 11.2841 0 -1e-06 -2.80473 9.92625 -17.3823 33.0001 1.6e-05 -1e-06 -20.5445 0.966891 15.0971 25.1998 0.000123 0.000432 9.21785 -12.6003 2.78145 
